<?xml version="1.0" encoding="utf-8"?>
<!DOCTYPE svg PUBLIC "-//W3C//DTD SVG 1.1//EN" "http://www.w3.org/Graphics/SVG/1.1/DTD/svg11.dtd">
<svg version="1.1" xmlns="http://www.w3.org/2000/svg" width="1020" height="495" x="0px" y="0px" viewBox="0 0 1080 1080" style="enable-background:new 0 0 1080 1080;">
	
	<path class="st0" d="M0,696.14V28.8C0,12.89,12.89,0,28.8,0h667.34c15.28,0,29.93,6.07,40.73,16.87l326.26,326.26
	c10.8,10.8,16.87,25.45,16.87,40.73v431.18c0,15.91-12.89,28.8-28.8,28.8H849.6c-15.91,0-28.8,12.89-28.8,28.8v178.56
	c0,15.91-12.89,28.8-28.8,28.8H383.86c-15.28,0-29.93-6.07-40.73-16.87L16.87,736.87C6.07,726.07,0,711.42,0,696.14z M374.4,411.84
	c0-7.95,6.45-14.4,14.4-14.4h230.4c7.95,0,14.4-6.45,14.4-14.4v-100.8c0-7.95-6.45-14.4-14.4-14.4H464.29
	c-11.46,0-22.45,4.55-30.55,12.65l-34.76,34.76c-9.07,9.07-24.58,2.65-24.58-10.18l0-74.68c0-7.95,6.45-14.4,14.4-14.4h230.4
	c7.95,0,14.4-6.45,14.4-14.4V100.8c0-7.95-6.45-14.4-14.4-14.4H100.8c-7.95,0-14.4,6.45-14.4,14.4v144v108v104.4v162
	c0,7.95,6.45,14.4,14.4,14.4H360c7.95,0,14.4-6.45,14.4-14.4L374.4,411.84z"></path>
</svg>
