<?xml version="1.0" encoding="utf-8"?>
<svg version="1.0" xmlns="http://www.w3.org/2000/svg" width="4961pt" height="4961pt" viewBox="1809.1 1322.4 1702 1700" xmlns:bx="https://boxy-svg.com" preserveAspectRatio="none">
  <defs>
    <bx:export>
      <bx:file format="svg" units="pt" />
    </bx:export>
  </defs>
  <g transform="translate(0.000000,3508.000000) scale(0.100000,-0.100000)" fill="#000000" stroke="none">
    <path d="M26400 21429 c-52 -4 -160 -13 -240 -19 -162 -12 -356 -35 -590 -71 -82 -12 -440 -77 -500 -90 -126 -29 -288 -68 -470 -115 -14 -4 -86 -24 -160 -46 -74 -22 -148 -43 -165 -48 -66 -17 -475 -158 -550 -190 -11 -4 -101 -40 -199 -80 -98 -39 -208 -85 -243 -101 -35 -16 -65 -29 -67 -29 -7 0 -233 -108 -376 -179 -398 -199 -648 -346 -1232 -726 -306 -199 -401 -262 -532 -353 -134 -94 -441 -321 -491 -364 -11 -9 -69 -57 -129 -105 -60 -48 -111 -93 -113 -98 -2 -6 87 -80 198 -165 111 -85 266 -204 345 -265 78 -60 183 -141 234 -180 51 -38 147 -113 215 -165 68 -52 221 -170 341 -263 504 -386 952 -729 994 -762 25 -19 82 -63 127 -97 44 -35 132 -102 195 -150 62 -48 219 -169 348 -268 279 -213 297 -228 420 -324 160 -126 218 -166 232 -160 7 3 31 28 53 56 110 140 370 382 579 538 221 165 538 336 801 432 98 36 296 86 425 108 25 4 83 15 130 23 218 40 362 51 660 51 356 0 521 -16 855 -85 204 -41 502 -134 680 -211 50 -22 108 -46 130 -55 63 -26 323 -161 382 -199 29 -19 56 -34 58 -34 3 0 53 -32 112 -71 672 -445 1207 -1084 1508 -1799 68 -162 69 -165 103 -265 56 -166 80 -251 133 -470 13 -54 55 -316 70 -440 17 -135 18 -686 1 -830 -17 -149 -53 -371 -72 -445 -5 -19 -23 -91 -40 -160 -135 -537 -399 -1065 -758 -1514 -180 -225 -485 -522 -722 -702 -242 -184 -580 -382 -827 -484 -43 -18 -91 -38 -108 -45 -16 -7 -64 -25 -105 -40 -41 -15 -84 -31 -95 -35 -80 -31 -350 -105 -470 -129 -33 -6 -78 -16 -100 -21 -22 -4 -96 -16 -165 -25 -69 -8 -154 -20 -188 -25 -91 -13 -648 -13 -767 0 -202 23 -487 77 -645 124 -30 9 -68 21 -85 25 -204 57 -656 254 -885 386 -36 21 -81 46 -100 57 -166 95 -434 288 -438 315 -2 12 17 79 41 150 24 70 51 151 60 178 18 57 76 230 87 260 12 31 70 205 87 260 9 28 34 102 55 165 22 63 42 124 45 135 3 11 8 29 13 40 5 11 30 85 55 165 26 80 66 197 88 260 22 63 42 127 44 143 3 15 9 30 14 33 5 3 9 12 9 21 0 9 16 60 36 115 19 55 33 102 31 105 -5 5 -74 -14 -207 -57 -30 -10 -109 -34 -175 -54 -66 -21 -169 -53 -230 -71 -60 -19 -141 -44 -180 -56 -38 -12 -119 -37 -180 -56 -60 -19 -123 -39 -140 -44 -16 -5 -64 -20 -105 -33 -41 -13 -109 -34 -150 -46 -41 -13 -136 -42 -210 -66 -74 -23 -182 -57 -240 -74 -112 -33 -160 -48 -255 -79 -33 -10 -89 -28 -125 -39 -215 -66 -338 -104 -360 -112 -14 -5 -72 -23 -130 -40 -58 -18 -154 -48 -215 -67 -60 -19 -123 -39 -140 -44 -65 -20 -507 -157 -720 -223 -60 -19 -157 -49 -215 -67 -58 -17 -154 -47 -215 -66 -60 -19 -123 -39 -140 -44 -16 -5 -82 -25 -145 -45 -63 -20 -131 -40 -150 -46 -19 -6 -44 -14 -55 -18 -11 -4 -40 -13 -65 -20 -25 -7 -76 -23 -115 -35 -38 -12 -131 -41 -205 -64 -74 -24 -155 -49 -180 -57 -25 -8 -88 -27 -140 -43 -449 -138 -435 -133 -433 -159 2 -12 12 -43 24 -69 38 -85 46 -105 139 -333 51 -124 103 -249 116 -278 13 -29 24 -55 24 -58 0 -3 7 -21 15 -40 36 -82 47 -108 115 -274 39 -96 77 -188 85 -205 7 -16 19 -46 28 -65 8 -19 47 -114 87 -210 39 -96 78 -191 87 -210 8 -19 19 -44 23 -55 4 -11 17 -40 28 -65 11 -25 48 -115 82 -200 34 -85 66 -159 71 -165 5 -5 9 -15 9 -22 0 -7 11 -36 24 -65 13 -29 57 -132 96 -228 39 -96 77 -188 85 -205 38 -88 100 -236 150 -360 31 -77 75 -183 97 -235 22 -52 44 -104 48 -115 4 -11 15 -36 23 -55 9 -19 41 -98 73 -175 31 -77 65 -160 76 -185 34 -76 44 -99 128 -305 45 -110 88 -215 96 -232 8 -18 20 -48 28 -65 8 -18 51 -123 96 -233 45 -110 89 -216 97 -235 8 -19 19 -44 23 -55 5 -11 22 -51 38 -90 17 -38 51 -122 77 -185 26 -63 53 -128 60 -145 7 -16 23 -55 35 -85 12 -30 32 -77 45 -105 12 -27 25 -60 29 -72 15 -49 31 -27 95 135 22 56 50 123 62 149 11 26 25 57 30 68 14 32 193 462 234 560 20 50 43 104 50 120 33 75 125 296 125 300 0 2 12 30 26 62 14 32 34 76 43 98 10 22 26 62 36 88 21 55 37 67 63 45 20 -17 289 -178 298 -178 3 0 18 -8 32 -18 27 -19 128 -74 322 -174 94 -49 326 -160 405 -193 17 -7 52 -22 79 -34 27 -12 72 -31 100 -42 28 -11 65 -26 81 -34 63 -27 191 -78 215 -85 14 -5 70 -25 125 -45 234 -85 634 -206 858 -259 184 -44 393 -89 487 -107 30 -5 74 -14 98 -19 23 -6 57 -10 74 -10 17 0 45 -4 62 -9 46 -14 267 -44 566 -76 536 -57 1571 -55 2043 5 209 27 249 32 342 46 55 8 120 19 145 24 25 5 83 17 130 26 47 9 104 20 128 25 61 12 368 88 422 104 25 8 79 24 120 36 125 37 353 113 415 139 11 4 76 29 145 55 69 27 158 63 198 81 41 19 75 34 77 34 8 0 142 63 320 151 214 105 510 269 711 394 18 11 54 33 81 49 86 52 369 243 485 327 657 479 1180 996 1667 1649 158 210 381 549 491 745 13 22 34 60 48 85 51 88 134 247 181 345 68 139 151 316 151 321 0 2 10 26 21 52 39 88 48 107 79 187 17 44 35 89 40 100 67 151 249 730 299 955 49 217 73 324 82 370 6 30 14 73 19 95 5 22 11 58 15 80 3 22 12 79 20 128 107 631 135 1437 75 2137 -34 400 -111 887 -196 1250 -8 36 -19 85 -25 110 -22 96 -79 309 -118 440 -62 207 -95 313 -118 375 -57 159 -132 365 -145 395 -6 14 -14 34 -18 45 -19 48 -54 133 -71 171 -10 22 -27 63 -37 90 -40 100 -270 574 -352 724 -252 461 -564 926 -897 1336 -388 479 -885 963 -1363 1324 -450 341 -977 655 -1445 861 -27 12 -72 32 -100 44 -70 32 -214 91 -277 114 -29 10 -98 35 -153 56 -378 139 -950 286 -1345 345 -41 6 -102 16 -135 21 -111 17 -299 38 -440 49 -77 6 -190 15 -251 20 -130 12 -798 11 -934 -1z" />
  </g>
</svg>