<?xml version="1.0" encoding="utf-8"?>
<svg xmlns="http://www.w3.org/2000/svg" overflow="visible" viewBox="2000.9009 998.517 1780.15 938.2301" width="1996.69pt" height="1000.78pt" preserveAspectRatio="none"><path d="M 17434.2 31210 L 35235.7 31210 L 35235.7 21827.7 L 17434.2 21827.7 L 17434.2 31210 Z M 25660 30779 C 25066 30747 24446 30648 23880 30494 C 23828 30480 23772 30465 23755 30460 C 23487 30389 22992 30207 22660 30060 C 22523 29998 22047 29755 21910 29676 C 21014 29158 20212 28482 19494 27640 C 19136 27220 18740 26650 18472 26170 C 18458 26145 18429 26094 18408 26055 C 18358 25966 18173 25592 18125 25480 C 18104 25433 18078 25373 18065 25345 C 17957 25098 17828 24718 17764 24455 C 17756 24422 17745 24379 17740 24360 C 17690 24169 17657 23895 17662 23710 L 17665 23575 L 19846 23572 L 22027 23570 L 22055 23637 C 22230 24065 22390 24355 22639 24690 C 23004 25184 23521 25625 24105 25941 C 24236 26012 24427 26105 24515 26140 C 24526 26144 24551 26155 24570 26163 C 24821 26272 25221 26384 25525 26429 C 25564 26435 25624 26444 25660 26450 C 25819 26474 26138 26484 26356 26471 C 26475 26465 26595 26455 26623 26451 C 26652 26446 26713 26437 26760 26430 C 27094 26384 27494 26267 27830 26118 C 27969 26056 28238 25917 28292 25879 C 28306 25868 28321 25860 28325 25860 C 28329 25860 28403 25813 28489 25756 C 29069 25371 29560 24852 29931 24230 C 29972 24161 30017 24084 30031 24057 L 30055 24010 L 29930 23887 C 29861 23820 29767 23729 29720 23685 C 29640 23611 29379 23362 29085 23080 C 29014 23011 28908 22910 28850 22854 C 28792 22799 28726 22736 28703 22715 C 28679 22694 28660 22674 28660 22670 C 28660 22659 28729 22650 28875 22640 C 28984 22633 29437 22597 29575 22585 C 29597 22583 29710 22574 29825 22566 C 29941 22557 30085 22546 30145 22540 C 30206 22534 30374 22520 30520 22509 C 30666 22498 30893 22480 31025 22469 C 31157 22459 31326 22446 31400 22440 C 31474 22435 31558 22428 31585 22425 C 31613 22422 31730 22413 31845 22405 C 31961 22397 32100 22386 32155 22380 C 32210 22375 32323 22366 32405 22360 C 32488 22354 32600 22345 32655 22340 C 32710 22335 32789 22328 32830 22326 C 32920 22320 33277 22292 33340 22285 C 33397 22280 33758 22251 33915 22240 C 34061 22229 34244 22215 34490 22195 C 34592 22186 34714 22177 34763 22173 L 34850 22167 L 34850 22266 C 34850 22320 34843 22601 34834 22890 C 34826 23179 34815 23591 34810 23805 C 34802 24160 34788 24674 34745 26165 C 34737 26451 34728 26802 34725 26945 C 34722 27088 34715 27327 34710 27475 C 34704 27624 34695 27936 34689 28170 C 34683 28404 34676 28598 34672 28602 C 34668 28606 34613 28561 34549 28502 C 34486 28443 34284 28256 34100 28085 C 33917 27915 33757 27766 33745 27755 C 33720 27733 33580 27603 33357 27395 C 33281 27324 33212 27264 33205 27262 C 33198 27260 33170 27290 33144 27327 C 32538 28190 31577 29059 30600 29627 C 30377 29756 29990 29958 29840 30023 C 29821 30031 29778 30050 29745 30065 C 29712 30080 29624 30117 29550 30147 C 29476 30177 29402 30208 29385 30215 C 29350 30231 29245 30268 29100 30317 C 29042 30337 28986 30356 28975 30361 C 28954 30369 28748 30434 28690 30450 C 28404 30531 28062 30611 27840 30650 C 27804 30656 27753 30665 27725 30670 C 27505 30711 27032 30763 26726 30780 C 26522 30791 25876 30791 25660 30779 Z" style="stroke: rgb(0, 0, 0); fill: rgb(255, 255, 255); stroke-width: 0px;" id="object-1" transform="matrix(0.10000000149011612, 0, 0, -0.10000000149011612, 257.4809265136719, 4119.51708984375)"/></svg>