<?xml version="1.0" standalone="no"?>
<!DOCTYPE svg PUBLIC "-//W3C//DTD SVG 20010904//EN"
 "http://www.w3.org/TR/2001/REC-SVG-20010904/DTD/svg10.dtd">
<svg version="1.0" xmlns="http://www.w3.org/2000/svg"
 width="4961.000000pt" height="3508.000000pt" viewBox="0 0 4961.000000 3508.000000"
 preserveAspectRatio="xMidYMid meet">
<metadata>
Created by potrace 1.16, written by Peter Selinger 2001-2019
</metadata>
<g transform="translate(0.000000,3508.000000) scale(0.100000,-0.100000)"
fill="#000000" stroke="none">
<path d="M25660 30779 c-594 -32 -1214 -131 -1780 -285 -52 -14 -108 -29 -125
-34 -268 -71 -763 -253 -1095 -400 -137 -62 -613 -305 -750 -384 -896 -518
-1698 -1194 -2416 -2036 -358 -420 -754 -990 -1022 -1470 -14 -25 -43 -76 -64
-115 -50 -89 -235 -463 -283 -575 -21 -47 -47 -107 -60 -135 -108 -247 -237
-627 -301 -890 -8 -33 -19 -76 -24 -95 -50 -191 -83 -465 -78 -650 l3 -135
2181 -3 2181 -2 28 67 c175 428 335 718 584 1053 365 494 882 935 1466 1251
131 71 322 164 410 199 11 4 36 15 55 23 251 109 651 221 955 266 39 6 99 15
135 21 159 24 478 34 696 21 119 -6 239 -16 267 -20 29 -5 90 -14 137 -21 334
-46 734 -163 1070 -312 139 -62 408 -201 462 -239 14 -11 29 -19 33 -19 4 0
78 -47 164 -104 580 -385 1071 -904 1442 -1526 41 -69 86 -146 100 -173 l24
-47 -125 -123 c-69 -67 -163 -158 -210 -202 -80 -74 -341 -323 -635 -605 -71
-69 -177 -170 -235 -226 -58 -55 -124 -118 -147 -139 -24 -21 -43 -41 -43 -45
0 -11 69 -20 215 -30 109 -7 562 -43 700 -55 22 -2 135 -11 250 -19 116 -9
260 -20 320 -26 61 -6 229 -20 375 -31 146 -11 373 -29 505 -40 132 -10 301
-23 375 -29 74 -5 158 -12 185 -15 28 -3 145 -12 260 -20 116 -8 255 -19 310
-25 55 -5 168 -14 250 -20 83 -6 195 -15 250 -20 55 -5 134 -12 175 -14 90 -6
447 -34 510 -41 57 -5 418 -34 575 -45 146 -11 329 -25 575 -45 102 -9 224
-18 273 -22 l87 -6 0 99 c0 54 -7 335 -16 624 -8 289 -19 701 -24 915 -8 355
-22 869 -65 2360 -8 286 -17 637 -20 780 -3 143 -10 382 -15 530 -6 149 -15
461 -21 695 -6 234 -13 428 -17 432 -4 4 -59 -41 -123 -100 -63 -59 -265 -246
-449 -417 -183 -170 -343 -319 -355 -330 -25 -22 -165 -152 -388 -360 -76 -71
-145 -131 -152 -133 -7 -2 -35 28 -61 65 -606 863 -1567 1732 -2544 2300 -223
129 -610 331 -760 396 -19 8 -62 27 -95 42 -33 15 -121 52 -195 82 -74 30
-148 61 -165 68 -35 16 -140 53 -285 102 -58 20 -114 39 -125 44 -21 8 -227
73 -285 89 -286 81 -628 161 -850 200 -36 6 -87 15 -115 20 -220 41 -693 93
-999 110 -204 11 -850 11 -1066 -1z"/>
</g>
</svg>
