<?xml version="1.0" encoding="utf-8"?>
<svg xmlns="http://www.w3.org/2000/svg" viewBox="1807.95 1319.2 1700 1700" width="4961pt" height="4961pt" preserveAspectRatio="none"><path d="M 18079.5 21888 L 35078.5 21888 L 35078.5 4854.4 L 18079.5 4854.4 L 18079.5 21888 Z M 25957.6 21740 C 25905.6 21736 25797.6 21727 25717.6 21721 C 25555.6 21710 25361.6 21687 25127.6 21651 C 25045.6 21639 24687.6 21575 24627.6 21562 C 24501.6 21533 24339.6 21495 24157.6 21448 C 24143.6 21444 24071.6 21425 23997.6 21403 C 23923.6 21381 23849.6 21360 23832.6 21355 C 23766.6 21339 23357.6 21199 23282.6 21167 C 23271.6 21163 23181.6 21128 23083.6 21088 C 22985.6 21050 22875.6 21004 22840.6 20988 C 22805.6 20973 22775.6 20960 22773.6 20960 C 22766.6 20960 22540.6 20853 22397.6 20783 C 21999.6 20586 21749.6 20440 21165.6 20064 C 20859.6 19868 20764.6 19805 20633.6 19715 C 20499.6 19622 20192.6 19398 20142.6 19355 C 20131.6 19346 20073.6 19299 20013.6 19251 C 19953.6 19204 19902.6 19159 19900.6 19154 C 19898.6 19148 19987.6 19075 20098.6 18991 C 20209.6 18907 20364.6 18789 20443.6 18729 C 20521.6 18669 20626.6 18589 20677.6 18551 C 20728.6 18513 20824.6 18439 20892.6 18388 C 20960.6 18336 21113.6 18219 21233.6 18127 C 21737.6 17746 22185.6 17406 22227.6 17374 C 22252.6 17355 22309.6 17311 22354.6 17278 C 22398.6 17243 22486.6 17177 22549.6 17129 C 22611.6 17082 22768.6 16962 22897.6 16864 C 23176.6 16653 23194.6 16638 23317.6 16544 C 23477.6 16419 23535.6 16379 23549.6 16385 C 23556.6 16388 23580.6 16413 23602.6 16441 C 23712.6 16579 23972.6 16819 24181.6 16973 C 24402.6 17136 24719.6 17305 24982.6 17400 C 25080.6 17436 25278.6 17485 25407.6 17507 C 25432.6 17511 25490.6 17522 25537.6 17530 C 25755.6 17569 25899.6 17580 26197.6 17580 C 26553.6 17580 26718.6 17564 27052.6 17496 C 27256.6 17456 27554.6 17364 27732.6 17287 C 27782.6 17266 27840.6 17242 27862.6 17233 C 27925.6 17207 28185.6 17074 28244.6 17036 C 28273.6 17017 28300.6 17003 28302.6 17003 C 28305.6 17003 28355.6 16971 28414.6 16932 C 29086.6 16492 29621.6 15860 29922.6 15153 C 29990.6 14992 29991.6 14989 30025.6 14890 C 30081.6 14726 30105.6 14642 30158.6 14425 C 30171.6 14372 30213.6 14113 30228.6 13990 C 30245.6 13857 30246.6 13312 30229.6 13169 C 30212.6 13022 30176.6 12802 30157.6 12729 C 30152.6 12710 30134.6 12639 30117.6 12571 C 29982.6 12039 29718.6 11517 29359.6 11073 C 29179.6 10850 28874.6 10556 28637.6 10378 C 28395.6 10196 28057.6 10000 27810.6 9899.5 C 27767.6 9881.7 27719.6 9861.9 27702.6 9855 C 27686.6 9848 27638.6 9830.3 27597.6 9815.4 C 27556.6 9800.6 27513.6 9784.7 27502.6 9780.8 C 27422.6 9750.1 27152.6 9676.9 27032.6 9653.2 C 26999.6 9647.2 26954.6 9637.3 26932.6 9632.4 C 26910.6 9628.4 26836.6 9616.6 26767.6 9607.7 C 26698.6 9599.7 26613.6 9587.9 26579.6 9582.9 C 26488.6 9570.1 25931.6 9570.1 25812.6 9582.9 C 25610.6 9605.7 25325.6 9659.1 25167.6 9705.6 C 25137.6 9714.5 25099.6 9726.4 25082.6 9730.3 C 24878.6 9786.7 24426.6 9981.6 24197.6 10112 C 24161.6 10133 24116.6 10158 24097.6 10169 C 23931.6 10263 23663.6 10453 23659.6 10480 C 23657.6 10492 23676.6 10558 23700.6 10629 C 23724.6 10698 23751.6 10778 23760.6 10805 C 23778.6 10861 23836.6 11032 23847.6 11062 C 23859.6 11093 23917.6 11265 23934.6 11319 C 23943.6 11347 23968.6 11420 23989.6 11482 C 24011.6 11545 24031.6 11605 24034.6 11616 C 24037.6 11627 24042.6 11645 24047.6 11655 C 24052.6 11666 24077.6 11740 24102.6 11819 C 24128.6 11898 24168.6 12014 24190.6 12076 C 24212.6 12138 24232.6 12202 24234.6 12217 C 24237.6 12232 24243.6 12247 24248.6 12250 C 24253.6 12253 24257.6 12262 24257.6 12271 C 24257.6 12280 24273.6 12330 24293.6 12385 C 24312.6 12439 24326.6 12485 24324.6 12488 C 24319.6 12493 24250.6 12475 24117.6 12432 C 24087.6 12422 24008.6 12398 23942.6 12379 C 23876.6 12358 23773.6 12326 23712.6 12308 C 23652.6 12290 23571.6 12265 23532.6 12253 C 23494.6 12241 23413.6 12216 23352.6 12198 C 23292.6 12179 23229.6 12159 23212.6 12154 C 23196.6 12149 23148.6 12134 23107.6 12121 C 23066.6 12109 22998.6 12088 22957.6 12076 C 22916.6 12063 22821.6 12034 22747.6 12011 C 22673.6 11988 22565.6 11954 22507.6 11937 C 22395.6 11905 22347.6 11890 22252.6 11859 C 22219.6 11849 22163.6 11832 22127.6 11821 C 21912.6 11755 21789.6 11718 21767.6 11710 C 21753.6 11705 21695.6 11687 21637.6 11670 C 21579.6 11652 21483.6 11623 21422.6 11604 C 21362.6 11585 21299.6 11565 21282.6 11560 C 21217.6 11541 20775.6 11405 20562.6 11340 C 20502.6 11321 20405.6 11291 20347.6 11274 C 20289.6 11257 20193.6 11227 20132.6 11208 C 20072.6 11189 20009.6 11170 19992.6 11165 C 19976.6 11160 19910.6 11140 19847.6 11120 C 19784.6 11100 19716.6 11081 19697.6 11075 C 19678.6 11069 19653.6 11061 19642.6 11057 C 19631.6 11053 19602.6 11044 19577.6 11037 C 19552.6 11030 19501.6 11014 19462.6 11003 C 19424.6 10991 19331.6 10962 19257.6 10939 C 19183.6 10915 19102.6 10891 19077.6 10883 C 19052.6 10875 18989.6 10856 18937.6 10840 C 18488.6 10704 18502.6 10709 18504.6 10683 C 18506.6 10671 18516.6 10640 18528.6 10615 C 18566.6 10531 18574.6 10511 18667.6 10285 C 18718.6 10163 18770.6 10039 18783.6 10010 C 18796.6 9981.6 18807.6 9955.9 18807.6 9952.9 C 18807.6 9949.9 18814.6 9932.1 18822.6 9913.3 C 18858.6 9832.2 18869.6 9806.5 18937.6 9642.3 C 18976.6 9547.3 19014.6 9456.3 19022.6 9439.5 C 19029.6 9423.6 19041.6 9394 19050.6 9375.2 C 19058.6 9356.4 19097.6 9262.4 19137.6 9167.4 C 19176.6 9072.4 19215.6 8978.5 19224.6 8959.7 C 19232.6 8940.9 19243.6 8916.1 19247.6 8905.3 C 19251.6 8894.4 19264.6 8865.7 19275.6 8841 C 19286.6 8816.2 19323.6 8727.2 19357.6 8643.1 C 19391.6 8559 19423.6 8485.8 19428.6 8479.9 C 19433.6 8474.9 19437.6 8465 19437.6 8458.1 C 19437.6 8451.2 19448.6 8422.5 19461.6 8393.8 C 19474.6 8365.1 19518.6 8263.2 19557.6 8168.2 C 19596.6 8073.3 19634.6 7982.2 19642.6 7965.4 C 19680.6 7878.4 19742.6 7731.9 19792.6 7609.3 C 19823.6 7533.1 19867.6 7428.2 19889.6 7376.8 C 19911.6 7325.4 19933.6 7273.9 19937.6 7263 C 19941.6 7252.1 19952.6 7227.4 19960.6 7208.6 C 19969.6 7189.8 20001.6 7111.7 20033.6 7035.5 C 20064.6 6959.3 20098.6 6877.2 20109.6 6852.5 C 20143.6 6777.3 20153.6 6754.6 20237.6 6550.7 C 20282.6 6441.9 20325.6 6338.1 20333.6 6321.2 C 20341.6 6303.4 20353.6 6273.7 20361.6 6256.9 C 20369.6 6239.1 20412.6 6135.2 20457.6 6026.4 C 20502.6 5917.6 20546.6 5812.7 20554.6 5793.9 C 20562.6 5775.1 20573.6 5750.4 20577.6 5739.5 C 20582.6 5728.6 20599.6 5689.1 20615.6 5650.5 C 20632.6 5612.9 20666.6 5529.8 20692.6 5467.5 C 20718.6 5405.1 20745.6 5340.9 20752.6 5324 C 20759.6 5308.2 20775.6 5269.6 20787.6 5239.9 C 20799.6 5210.3 20819.6 5163.8 20832.6 5136.1 C 20844.6 5109.4 20857.6 5076.7 20861.6 5064.8 C 20876.6 5016.4 20892.6 5038.1 20956.6 5198.4 C 20978.6 5253.8 21006.6 5320.1 21018.6 5345.8 C 21029.6 5371.5 21043.6 5402.2 21048.6 5413.1 C 21062.6 5444.7 21241.6 5870.1 21282.6 5967.1 C 21302.6 6016.5 21325.6 6069.9 21332.6 6085.8 C 21365.6 6160 21457.6 6378.6 21457.6 6382.6 C 21457.6 6384.6 21469.6 6412.2 21483.6 6443.9 C 21497.6 6475.6 21517.6 6519.1 21526.6 6540.9 C 21536.6 6562.6 21552.6 6602.2 21562.6 6627.9 C 21583.6 6682.3 21599.6 6694.2 21625.6 6672.4 C 21645.6 6655.6 21914.6 6496.3 21923.6 6496.3 C 21926.6 6496.3 21941.6 6488.4 21955.6 6478.5 C 21982.6 6459.7 22083.6 6405.3 22277.6 6306.4 C 22371.6 6257.9 22603.6 6148.1 22682.6 6115.5 C 22699.6 6108.5 22734.6 6093.7 22761.6 6081.8 C 22788.6 6069.9 22833.6 6051.1 22861.6 6040.3 C 22889.6 6029.4 22926.6 6014.6 22942.6 6006.6 C 23005.6 5979.9 23133.6 5929.5 23157.6 5922.6 C 23171.6 5917.6 23227.6 5897.8 23282.6 5878 C 23516.6 5793.9 23916.6 5674.2 24140.6 5621.8 C 24324.6 5578.3 24533.6 5533.8 24627.6 5515.9 C 24657.6 5511 24701.6 5502.1 24725.6 5497.1 C 24748.6 5491.2 24782.6 5487.3 24799.6 5487.3 C 24816.6 5487.3 24844.6 5483.3 24861.6 5478.4 C 24907.6 5464.5 25128.6 5434.8 25427.6 5403.2 C 25963.6 5346.8 26998.6 5348.8 27470.6 5408.1 C 27679.6 5434.8 27719.6 5439.8 27812.6 5453.6 C 27867.6 5461.5 27932.6 5472.4 27957.6 5477.4 C 27982.6 5482.3 28040.6 5494.2 28087.6 5503.1 C 28134.6 5512 28191.6 5522.9 28215.6 5527.8 C 28276.6 5539.7 28583.6 5614.9 28637.6 5630.7 C 28662.6 5638.6 28716.6 5654.4 28757.6 5666.3 C 28882.6 5702.9 29110.6 5778.1 29172.6 5803.8 C 29183.6 5807.8 29248.6 5832.5 29317.6 5858.2 C 29386.6 5884.9 29475.6 5920.6 29515.6 5938.4 C 29556.6 5957.2 29590.6 5972 29592.6 5972 C 29600.6 5972 29734.6 6034.3 29912.6 6121.4 C 30126.6 6225.3 30422.6 6387.5 30623.6 6511.2 C 30641.6 6522.1 30677.6 6543.8 30704.6 6559.6 C 30790.6 6611.1 31073.6 6800.1 31189.6 6883.1 C 31846.6 7357 32369.6 7868.5 32856.6 8514.5 C 33014.6 8722.2 33237.6 9057.6 33347.6 9251.5 C 33360.6 9273.3 33381.6 9310.9 33395.6 9335.6 C 33446.6 9422.7 33529.6 9580 33576.6 9676.9 C 33644.6 9814.4 33727.6 9989.5 33727.6 9994.5 C 33727.6 9996.5 33737.6 10020 33748.6 10046 C 33787.6 10133 33796.6 10152 33827.6 10231 C 33844.6 10274 33862.6 10319 33867.6 10330 C 33934.6 10479 34116.6 11052 34166.6 11275 C 34215.6 11489 34239.6 11595 34248.6 11641 C 34254.6 11670 34262.6 11713 34267.6 11735 C 34272.6 11756 34278.6 11792 34282.6 11814 C 34285.6 11835 34294.6 11892 34302.6 11940 C 34409.6 12565 34437.6 13362 34377.6 14054 C 34343.6 14450 34266.6 14932 34181.6 15291 C 34173.6 15327 34162.6 15375 34156.6 15400 C 34134.6 15495 34077.6 15706 34038.6 15835 C 33976.6 16040 33943.6 16145 33920.6 16206 C 33863.6 16363 33788.6 16567 33775.6 16597 C 33769.6 16611 33761.6 16631 33757.6 16641 C 33738.6 16689 33703.6 16773 33686.6 16811 C 33676.6 16832 33659.6 16873 33649.6 16900 C 33609.6 16999 33379.6 17468 33297.6 17616 C 33045.6 18072 32733.6 18532 32400.6 18938 C 32012.6 19411 31515.6 19890 31037.6 20247 C 30587.6 20585 30060.6 20895 29592.6 21099 C 29565.6 21111 29520.6 21131 29492.6 21143 C 29422.6 21174 29278.6 21233 29215.6 21256 C 29186.6 21265 29117.6 21290 29062.6 21311 C 28684.6 21448 28112.6 21594 27717.6 21652 C 27676.6 21658 27615.6 21668 27582.6 21673 C 27471.6 21690 27283.6 21711 27142.6 21721 C 27065.6 21727 26952.6 21736 26891.6 21741 C 26761.6 21753 26093.6 21752 25957.6 21740 Z" style="fill: white; stroke: rgb(0, 0, 0);" id="object-0" transform="matrix(0.10000000149011612, 0, 0, -0.10000000149011612, 0, 3508)"/></svg>